<svg width="24" height="25" viewBox="0 0 24 25" fill="none" xmlns="http://www.w3.org/2000/svg">
<path d="M6.85714 7.22656V5.27344C6.85714 4.95117 7.14643 4.6875 7.5 4.6875H9.64286C9.99643 4.6875 10.2857 4.95117 10.2857 5.27344V7.22656C10.2857 7.54883 9.99643 7.8125 9.64286 7.8125H7.5C7.14643 7.8125 6.85714 7.54883 6.85714 7.22656ZM14.3571 7.8125H16.5C16.8536 7.8125 17.1429 7.54883 17.1429 7.22656V5.27344C17.1429 4.95117 16.8536 4.6875 16.5 4.6875H14.3571C14.0036 4.6875 13.7143 4.95117 13.7143 5.27344V7.22656C13.7143 7.54883 14.0036 7.8125 14.3571 7.8125ZM7.5 12.5H9.64286C9.99643 12.5 10.2857 12.2363 10.2857 11.9141V9.96094C10.2857 9.63867 9.99643 9.375 9.64286 9.375H7.5C7.14643 9.375 6.85714 9.63867 6.85714 9.96094V11.9141C6.85714 12.2363 7.14643 12.5 7.5 12.5ZM14.3571 12.5H16.5C16.8536 12.5 17.1429 12.2363 17.1429 11.9141V9.96094C17.1429 9.63867 16.8536 9.375 16.5 9.375H14.3571C14.0036 9.375 13.7143 9.63867 13.7143 9.96094V11.9141C13.7143 12.2363 14.0036 12.5 14.3571 12.5ZM10.2857 16.6016V14.6484C10.2857 14.3262 9.99643 14.0625 9.64286 14.0625H7.5C7.14643 14.0625 6.85714 14.3262 6.85714 14.6484V16.6016C6.85714 16.9238 7.14643 17.1875 7.5 17.1875H9.64286C9.99643 17.1875 10.2857 16.9238 10.2857 16.6016ZM14.3571 17.1875H16.5C16.8536 17.1875 17.1429 16.9238 17.1429 16.6016V14.6484C17.1429 14.3262 16.8536 14.0625 16.5 14.0625H14.3571C14.0036 14.0625 13.7143 14.3262 13.7143 14.6484V16.6016C13.7143 16.9238 14.0036 17.1875 14.3571 17.1875ZM24 23.2422V25H0V23.2422C0 22.9199 0.289286 22.6562 0.642857 22.6562H1.6875V1.17188C1.6875 0.522461 2.26071 0 2.97321 0H21.0268C21.7393 0 22.3125 0.522461 22.3125 1.17188V22.6562H23.3571C23.7107 22.6562 24 22.9199 24 23.2422ZM4.25893 22.6074H10.2857V19.3359C10.2857 19.0137 10.575 18.75 10.9286 18.75H13.0714C13.425 18.75 13.7143 19.0137 13.7143 19.3359V22.6074H19.7411V2.39258L4.28571 2.34375L4.25893 22.6074Z" fill="#F1E9FA"/>
</svg>
