<svg width="25" height="20" viewBox="0 0 25 20" fill="none" xmlns="http://www.w3.org/2000/svg">
<path d="M1 -3.60495e-06C0.734784 -3.60495e-06 0.48043 0.105353 0.292893 0.29289C0.105357 0.480426 0 0.73478 0 0.999996C0 1.26521 0.105357 1.51957 0.292893 1.7071C0.48043 1.89464 0.734784 2 1 2H3.22L5.844 12.5C6.067 13.39 6.864 14 7.781 14H20.251C21.154 14 21.921 13.4 22.158 12.53L24.75 3H22.656L20.25 12H7.78L5.157 1.5C5.04865 1.06923 4.79888 0.687275 4.44768 0.41531C4.09648 0.143346 3.66418 -0.00289871 3.22 -3.60495e-06H1ZM19 14C17.355 14 16 15.355 16 17C16 18.645 17.355 20 19 20C20.645 20 22 18.645 22 17C22 15.355 20.645 14 19 14ZM10 14C8.355 14 7 15.355 7 17C7 18.645 8.355 20 10 20C11.645 20 13 18.645 13 17C13 15.355 11.645 14 10 14ZM13 -3.60495e-06V5H10L14 9L18 5H15V-3.60495e-06H13ZM10 16C10.564 16 11 16.436 11 17C11 17.564 10.564 18 10 18C9.436 18 9 17.564 9 17C9 16.436 9.436 16 10 16ZM19 16C19.564 16 20 16.436 20 17C20 17.564 19.564 18 19 18C18.436 18 18 17.564 18 17C18 16.436 18.436 16 19 16Z" fill="#F1E9FA"/>
</svg>
