<svg width="29" height="21" viewBox="0 0 29 21" fill="none" xmlns="http://www.w3.org/2000/svg">
<path d="M20.5321 11.8654C22.3017 12.9892 23.5417 14.5117 23.5417 16.5417V20.1667H28.7084V16.5417C28.7084 13.9075 24.0971 12.3487 20.5321 11.8654ZM18.375 10.5C21.2296 10.5 23.5417 8.33708 23.5417 5.66667C23.5417 2.99625 21.2296 0.833332 18.375 0.833332C17.7679 0.833332 17.1996 0.954165 16.6571 1.12333C17.7686 2.40926 18.375 4.01294 18.375 5.66667C18.375 7.32039 17.7686 8.92407 16.6571 10.21C17.1996 10.3792 17.7679 10.5 18.375 10.5ZM10.625 10.5C13.4796 10.5 15.7917 8.33708 15.7917 5.66667C15.7917 2.99625 13.4796 0.833332 10.625 0.833332C7.77044 0.833332 5.45835 2.99625 5.45835 5.66667C5.45835 8.33708 7.77044 10.5 10.625 10.5ZM10.625 3.25C12.0459 3.25 13.2084 4.3375 13.2084 5.66667C13.2084 6.99583 12.0459 8.08333 10.625 8.08333C9.20419 8.08333 8.04169 6.99583 8.04169 5.66667C8.04169 4.3375 9.20419 3.25 10.625 3.25ZM10.625 11.7083C7.17627 11.7083 0.291687 13.3275 0.291687 16.5417V20.1667H20.9584V16.5417C20.9584 13.3275 14.0738 11.7083 10.625 11.7083ZM18.375 17.75H2.87502V16.5537C3.13335 15.6837 7.13752 14.125 10.625 14.125C14.1125 14.125 18.1167 15.6837 18.375 16.5417V17.75Z" fill="#F1E9FA"/>
</svg>
