<svg width="37" height="37" viewBox="0 0 37 37" fill="none" xmlns="http://www.w3.org/2000/svg">
<path d="M26.95 2H10.45C5.89365 2 2.2 5.69365 2.2 10.25V26.75C2.2 31.3063 5.89365 35 10.45 35H26.95C31.5064 35 35.2 31.3063 35.2 26.75V10.25C35.2 5.69365 31.5064 2 26.95 2Z" stroke="#F1E9FA" stroke-width="3.3" stroke-linecap="round" stroke-linejoin="round"/>
<path d="M25.3 17.4604C25.5036 18.8337 25.2691 20.2361 24.6297 21.4683C23.9903 22.7005 22.9787 23.6998 21.7387 24.3239C20.4987 24.948 19.0934 25.1653 17.7228 24.9447C16.3523 24.7242 15.0861 24.0771 14.1045 23.0955C13.1229 22.1138 12.4758 20.8477 12.2552 19.4771C12.0347 18.1065 12.2519 16.7013 12.876 15.4613C13.5002 14.2213 14.4994 13.2096 15.7316 12.5702C16.9638 11.9309 18.3663 11.6963 19.7395 11.8999C21.1402 12.1077 22.437 12.7604 23.4383 13.7617C24.4396 14.7629 25.0923 16.0597 25.3 17.4604Z" stroke="#F1E9FA" stroke-width="3.3" stroke-linecap="round" stroke-linejoin="round"/>
<path d="M27.775 9.42499H27.7912" stroke="#F1E9FA" stroke-width="3.3" stroke-linecap="round" stroke-linejoin="round"/>
</svg>
