<svg width="25" height="26" viewBox="0 0 25 26" fill="none" xmlns="http://www.w3.org/2000/svg">
<path d="M24.1844 13.5563C24.7094 12.8625 25 12.0125 25 11.1281C25 9.72502 24.2156 8.3969 22.9531 7.65627C22.6281 7.46563 22.2581 7.3653 21.8813 7.36565H14.3875L14.575 3.52502C14.6188 2.5969 14.2906 1.71565 13.6531 1.04377C13.3403 0.712611 12.9628 0.449126 12.5441 0.269602C12.1254 0.0900777 11.6743 -0.00167192 11.2188 2.3063e-05C9.59375 2.3063e-05 8.15625 1.09377 7.725 2.6594L5.04062 12.3781H1C0.446875 12.3781 0 12.825 0 13.3781V24.7531C0 25.3063 0.446875 25.7531 1 25.7531H19.7906C20.0781 25.7531 20.3594 25.6969 20.6187 25.5844C22.1062 24.95 23.0656 23.4969 23.0656 21.8844C23.0656 21.4906 23.0094 21.1031 22.8969 20.7281C23.4219 20.0344 23.7125 19.1844 23.7125 18.3C23.7125 17.9063 23.6562 17.5188 23.5438 17.1438C24.0688 16.45 24.3594 15.6 24.3594 14.7156C24.3531 14.3219 24.2969 13.9313 24.1844 13.5563ZM2.25 23.5031V14.6281H4.78125V23.5031H2.25ZM22.1375 12.4719L21.4531 13.0656L21.8875 13.8594C22.0306 14.1209 22.1048 14.4145 22.1031 14.7125C22.1031 15.2281 21.8781 15.7188 21.4906 16.0563L20.8062 16.65L21.2406 17.4438C21.3837 17.7052 21.4579 17.9988 21.4562 18.2969C21.4562 18.8125 21.2313 19.3031 20.8438 19.6406L20.1594 20.2344L20.5938 21.0281C20.7369 21.2896 20.8111 21.5832 20.8094 21.8813C20.8094 22.5813 20.3969 23.2125 19.7594 23.5H6.78125V14.5281L9.89062 3.26252C9.9708 2.97377 10.1429 2.71903 10.3809 2.53689C10.6189 2.35474 10.9097 2.25513 11.2094 2.25315C11.4469 2.25315 11.6812 2.3219 11.8687 2.46252C12.1781 2.69377 12.3438 3.04377 12.325 3.41565L12.025 9.61565H21.85C22.4062 9.95627 22.75 10.5313 22.75 11.1281C22.75 11.6438 22.525 12.1313 22.1375 12.4719Z" fill="#F1E9FA"/>
</svg>
