<svg width="26" height="26" viewBox="0 0 26 26" fill="none" xmlns="http://www.w3.org/2000/svg">
<path d="M24.6844 13.6781C25.2094 12.9844 25.5 12.1344 25.5 11.25C25.5 9.84687 24.7156 8.51875 23.4531 7.77812C23.1281 7.58748 22.7581 7.48715 22.3813 7.4875H14.8875L15.075 3.64687C15.1188 2.71875 14.7906 1.8375 14.1531 1.16562C13.8403 0.83446 13.4628 0.570975 13.0441 0.391451C12.6254 0.211927 12.1743 0.120177 11.7188 0.121872C10.0938 0.121872 8.65625 1.21562 8.225 2.78125L5.54062 12.5H1.5C0.946875 12.5 0.5 12.9469 0.5 13.5V24.875C0.5 25.4281 0.946875 25.875 1.5 25.875H20.2906C20.5781 25.875 20.8594 25.8187 21.1187 25.7062C22.6062 25.0719 23.5656 23.6187 23.5656 22.0062C23.5656 21.6125 23.5094 21.225 23.3969 20.85C23.9219 20.1562 24.2125 19.3062 24.2125 18.4219C24.2125 18.0281 24.1562 17.6406 24.0438 17.2656C24.5688 16.5719 24.8594 15.7219 24.8594 14.8375C24.8531 14.4437 24.7969 14.0531 24.6844 13.6781ZM2.75 23.625V14.75H5.28125V23.625H2.75ZM22.6375 12.5937L21.9531 13.1875L22.3875 13.9812C22.5306 14.2427 22.6048 14.5363 22.6031 14.8344C22.6031 15.35 22.3781 15.8406 21.9906 16.1781L21.3062 16.7719L21.7406 17.5656C21.8837 17.8271 21.9579 18.1207 21.9562 18.4187C21.9562 18.9344 21.7313 19.425 21.3438 19.7625L20.6594 20.3562L21.0938 21.15C21.2369 21.4115 21.3111 21.7051 21.3094 22.0031C21.3094 22.7031 20.8969 23.3344 20.2594 23.6219H7.28125V14.65L10.3906 3.38437C10.4708 3.09562 10.6429 2.84088 10.8809 2.65874C11.1189 2.47659 11.4097 2.37698 11.7094 2.375C11.9469 2.375 12.1812 2.44375 12.3687 2.58437C12.6781 2.81562 12.8438 3.16562 12.825 3.5375L12.525 9.7375H22.35C22.9062 10.0781 23.25 10.6531 23.25 11.25C23.25 11.7656 23.025 12.2531 22.6375 12.5937Z" fill="#676968"/>
</svg>
