<svg width="23" height="23" viewBox="0 0 23 23" fill="none" xmlns="http://www.w3.org/2000/svg">
<path d="M12.05 2.775L14.325 0.5L22.275 8.4375L19.9875 10.7125C19.3325 10.2894 18.5523 10.1033 17.7768 10.1852C17.0013 10.267 16.2772 10.6119 15.725 11.1625L14.7875 12.1C13.6375 13.2625 13.4875 15.0375 14.35 16.3625L12.0625 18.6375L9.04998 15.625L5.54998 19.1125C5.02498 19.6375 1.32499 22.5 0.799986 21.975C0.274986 21.45 3.12499 17.7375 3.64999 17.2125L7.13749 13.725L4.12499 10.7L6.41249 8.425C7.72499 9.2875 9.51249 9.1375 10.6625 7.975L11.6 7.0375C12.7625 5.8875 12.9125 4.1 12.05 2.775Z" fill="#F1E9FA"/>
</svg>
