<svg width="14" height="14" viewBox="0 0 14 14" fill="none" xmlns="http://www.w3.org/2000/svg">
<path d="M13.7094 12.7059L9.32702 8.27276C10.0071 7.3834 10.375 6.29603 10.375 5.15232C10.375 3.78329 9.84677 2.49961 8.89165 1.53172C7.93653 0.563841 6.66416 0.03125 5.31248 0.03125C3.9608 0.03125 2.68843 0.565548 1.73331 1.53172C0.776498 2.4979 0.25 3.78329 0.25 5.15232C0.25 6.51965 0.778185 7.80674 1.73331 8.77292C2.68843 9.7408 3.95911 10.2734 5.31248 10.2734C6.4431 10.2734 7.51634 9.90126 8.39553 9.21504L12.7779 13.6465C12.7908 13.6595 12.8061 13.6698 12.8228 13.6768C12.8396 13.6839 12.8576 13.6875 12.8758 13.6875C12.894 13.6875 12.912 13.6839 12.9288 13.6768C12.9456 13.6698 12.9608 13.6595 12.9737 13.6465L13.7094 12.9039C13.7223 12.8909 13.7325 12.8755 13.7395 12.8585C13.7464 12.8415 13.75 12.8233 13.75 12.8049C13.75 12.7865 13.7464 12.7683 13.7395 12.7513C13.7325 12.7343 13.7223 12.7189 13.7094 12.7059ZM7.98547 7.85625C7.26997 8.57832 6.3216 8.97605 5.31248 8.97605C4.30336 8.97605 3.35499 8.57832 2.63949 7.85625C1.92568 7.13247 1.53249 6.17312 1.53249 5.15232C1.53249 4.13152 1.92568 3.17047 2.63949 2.4484C3.35499 1.72632 4.30336 1.32859 5.31248 1.32859C6.3216 1.32859 7.27166 1.72462 7.98547 2.4484C8.69928 3.17217 9.09246 4.13152 9.09246 5.15232C9.09246 6.17312 8.69928 7.13418 7.98547 7.85625Z" fill="#676968"/>
</svg>
