<svg width="27" height="27" viewBox="0 0 27 27" fill="none" xmlns="http://www.w3.org/2000/svg">
<path d="M26.5254 5.69531C26.3848 5.625 26.2397 5.60303 26.0903 5.62939C25.9409 5.65576 25.8047 5.72168 25.6816 5.82715L21.4365 9.65039L17.5869 5.69531L21.3838 1.31836C21.6123 1.05469 21.6562 0.764648 21.5156 0.448242C21.4453 0.307617 21.3442 0.197754 21.2124 0.118652C21.0806 0.0395508 20.9355 0 20.7773 0H20.5664C19.8457 0 19.1602 0.0219727 18.5098 0.065918C17.8594 0.109863 17.1211 0.193359 16.2949 0.316406C15.4688 0.439453 14.7085 0.645996 14.0142 0.936035C13.3198 1.22607 12.7617 1.59082 12.3398 2.03027L11.9707 2.39941C11.3555 3.03223 10.8896 3.79688 10.5732 4.69336C10.2568 5.58984 10.1162 6.49951 10.1514 7.42236C10.1865 8.34521 10.3799 9.21973 10.7314 10.0459L0.975586 19.9863C0.325195 20.6543 0 21.4585 0 22.3989C0 23.3394 0.325195 24.1436 0.975586 24.8115L2.16211 26.0244C2.83008 26.6748 3.62549 27 4.54834 27C5.47119 27 6.2666 26.6748 6.93457 26.0244L16.7959 16.0576C17.042 16.1807 17.3013 16.2949 17.5737 16.4004C17.8462 16.5059 18.123 16.5938 18.4043 16.6641C18.6855 16.7344 18.9712 16.7915 19.2612 16.8354C19.5513 16.8794 19.8281 16.9014 20.0918 16.9014C21.8672 16.9014 23.4053 16.2422 24.7061 14.9238L25.0488 14.5547C25.4355 14.1855 25.7607 13.6978 26.0244 13.0913C26.2881 12.4849 26.4814 11.9268 26.6045 11.417C26.7275 10.9072 26.8198 10.2656 26.8813 9.49219C26.9429 8.71875 26.978 8.16943 26.9868 7.84424C26.9956 7.51904 27 7.04883 27 6.43359C26.9824 6.09961 26.8242 5.85352 26.5254 5.69531ZM23.8887 13.4209L23.5723 13.79C23.2559 14.1064 22.9087 14.3701 22.5308 14.5811C22.1528 14.792 21.7617 14.9502 21.3574 15.0557C20.9531 15.1611 20.5312 15.2139 20.0918 15.2139C19.7578 15.2139 19.3975 15.1787 19.0107 15.1084C18.624 15.0381 18.29 14.9502 18.0088 14.8447C17.4814 14.6162 16.998 14.2998 16.5586 13.8955L5.74805 24.8115C5.41406 25.1455 5.01416 25.3125 4.54834 25.3125C4.08252 25.3125 3.68262 25.1455 3.34863 24.8115L2.16211 23.5986C1.95117 23.3877 1.80615 23.1372 1.72705 22.8472C1.64795 22.5571 1.64795 22.2627 1.72705 21.9639C1.80615 21.665 1.95117 21.4102 2.16211 21.1992L12.7354 10.415C12.4014 9.92285 12.1553 9.36914 11.9971 8.75391C11.874 8.17383 11.8169 7.57617 11.8257 6.96094C11.8345 6.3457 11.9487 5.72607 12.1685 5.10205C12.3882 4.47803 12.7002 3.95508 13.1045 3.5332L13.4736 3.16406C13.9482 2.67188 14.7085 2.31152 15.7544 2.08301C16.8003 1.85449 17.877 1.70508 18.9844 1.63477L15.8994 5.19434C15.7588 5.35254 15.6929 5.5415 15.7017 5.76123C15.7104 5.98096 15.7852 6.16113 15.9258 6.30176L20.8037 11.3115C20.9619 11.4697 21.1465 11.5532 21.3574 11.562C21.5684 11.5708 21.7529 11.5049 21.9111 11.3643L25.3652 8.25293C25.1895 10.8545 24.6973 12.5771 23.8887 13.4209Z" fill="#F1E9FA"/>
</svg>
