<svg width="26" height="26" viewBox="0 0 26 26" fill="none" xmlns="http://www.w3.org/2000/svg">
<path d="M25.5438 12.1419L23.9138 11.8794C23.8085 11.8617 23.7117 11.8107 23.6375 11.734C23.5633 11.6573 23.5155 11.5589 23.5013 11.4531C23.47 11.2531 23.4388 11.0525 23.395 10.8588C23.3739 10.7547 23.386 10.6467 23.4298 10.55C23.4735 10.4533 23.5467 10.3728 23.6388 10.32L25.0819 9.51875C25.1911 9.4629 25.2762 9.36905 25.3211 9.25487C25.366 9.14069 25.3676 9.01404 25.3256 8.89875L25.0756 8.21125C25.0338 8.09564 24.9506 7.99967 24.842 7.94194C24.7335 7.8842 24.6074 7.86881 24.4881 7.89875L22.87 8.21125C22.7648 8.23161 22.6558 8.21764 22.5592 8.17139C22.4625 8.12515 22.3833 8.04907 22.3331 7.95438C22.2394 7.77938 22.1394 7.60417 22.0331 7.42875C21.977 7.33754 21.9511 7.23098 21.9589 7.12419C21.9668 7.01739 22.008 6.91578 22.0769 6.83375L23.1575 5.5875C23.2413 5.49833 23.2895 5.38151 23.293 5.25919C23.2964 5.13686 23.2549 5.01751 23.1763 4.92375L22.7081 4.36125C22.6301 4.26665 22.5196 4.20455 22.3983 4.1871C22.2769 4.16965 22.1534 4.19809 22.0519 4.26687L20.6338 5.11875C20.5426 5.17277 20.4366 5.19644 20.3311 5.18633C20.2257 5.17622 20.1261 5.13285 20.0469 5.0625C19.8969 4.93062 19.7406 4.79938 19.5844 4.67375C19.5013 4.60772 19.4413 4.51695 19.4132 4.41459C19.3852 4.31222 19.3904 4.20358 19.4281 4.10437L20.0156 2.5575C20.0656 2.44527 20.0726 2.31857 20.0351 2.20156C19.9976 2.08456 19.9184 1.98544 19.8125 1.92312L19.175 1.55375C19.0686 1.49333 18.9438 1.47403 18.8241 1.49948C18.7044 1.52494 18.5982 1.59339 18.5256 1.69187L17.4856 2.99437C17.4275 3.07635 17.3435 3.13635 17.2471 3.1647C17.1507 3.19305 17.0476 3.18809 16.9544 3.15062C16.9544 3.15062 16.6044 3.00687 16.3419 2.91875C16.2412 2.8852 16.1538 2.82048 16.0923 2.73396C16.0309 2.64744 15.9985 2.54362 16 2.4375L16.025 0.784375C16.0324 0.661418 15.9945 0.540017 15.9185 0.443072C15.8425 0.346128 15.7337 0.280342 15.6125 0.258125L14.8881 0.133125C14.7669 0.112124 14.6421 0.136178 14.5374 0.200757C14.4326 0.265336 14.3551 0.365984 14.3194 0.48375L13.7819 2.04937C13.7474 2.15029 13.6815 2.23753 13.594 2.29837C13.5064 2.3592 13.4016 2.39043 13.295 2.3875H12.6825C12.576 2.38975 12.4716 2.35825 12.3842 2.29751C12.2967 2.23677 12.2307 2.14991 12.1956 2.04937L11.6581 0.48375C11.6224 0.365984 11.5449 0.265336 11.4401 0.200757C11.3354 0.136178 11.2106 0.112124 11.0894 0.133125L10.365 0.258125C10.2438 0.280342 10.135 0.346128 10.059 0.443072C9.98303 0.540017 9.94514 0.661418 9.95251 0.784375L9.97751 2.4375C9.97902 2.54388 9.94656 2.64796 9.88485 2.73462C9.82314 2.82129 9.7354 2.88601 9.63438 2.91937C9.49063 2.97562 9.17813 3.095 9.02813 3.15125C8.85313 3.21375 8.64688 3.16375 8.47813 2.96937L7.44626 1.69812C7.3733 1.60005 7.26695 1.5321 7.1473 1.50711C7.02765 1.48212 6.90299 1.50182 6.79688 1.5625L6.15938 1.93188C6.05324 1.993 5.97345 2.09123 5.93537 2.20765C5.89729 2.32407 5.90362 2.45046 5.95313 2.5625L6.54063 4.10937C6.57781 4.20865 6.58272 4.31712 6.55467 4.41935C6.52661 4.52158 6.46702 4.61236 6.38438 4.67875C6.22813 4.80375 6.07188 4.93563 5.92188 5.0675C5.84264 5.13786 5.7431 5.18122 5.63762 5.19133C5.53214 5.20144 5.42617 5.17777 5.33501 5.12375L3.93751 4.25875C3.83547 4.19161 3.71239 4.16414 3.59149 4.18153C3.47059 4.19891 3.36024 4.25995 3.28126 4.35313L2.81313 4.91563C2.73449 5.00939 2.69296 5.12873 2.69642 5.25106C2.69987 5.37339 2.74807 5.4902 2.83188 5.57938L3.91251 6.82563C3.98277 6.90693 4.02497 7.00871 4.03285 7.11588C4.04073 7.22306 4.01387 7.32991 3.95626 7.42062C3.85001 7.58729 3.75001 7.7625 3.65626 7.94625C3.60528 8.04021 3.52591 8.11565 3.42949 8.16178C3.33307 8.20792 3.22452 8.22239 3.11938 8.20312L1.50126 7.89062C1.38205 7.86155 1.25631 7.87732 1.14797 7.93495C1.03964 7.99257 0.956277 8.08802 0.913757 8.20312L0.663757 8.89062C0.621805 9.00592 0.623427 9.13257 0.668317 9.24675C0.713206 9.36093 0.79827 9.45477 0.907507 9.51062L2.34876 10.3125C2.44181 10.3643 2.51575 10.4446 2.55964 10.5416C2.60353 10.6386 2.61506 10.7472 2.59251 10.8512C2.55501 11.0512 2.51751 11.2456 2.48626 11.4456C2.47125 11.5511 2.42327 11.6491 2.34918 11.7257C2.27509 11.8023 2.17869 11.8534 2.07376 11.8719L0.443757 12.1344C0.322458 12.1493 0.210677 12.2077 0.129096 12.2987C0.0475159 12.3897 0.00165777 12.5072 6.7556e-06 12.6294V13.3619C-0.00150901 13.485 0.0432542 13.6042 0.125434 13.6958C0.207614 13.7875 0.321219 13.845 0.443757 13.8569L2.07376 14.1194C2.179 14.1371 2.27582 14.188 2.35004 14.2647C2.42426 14.3414 2.472 14.4399 2.48626 14.5456C2.51751 14.7456 2.54876 14.9462 2.59251 15.14C2.61366 15.244 2.60149 15.3521 2.55773 15.4488C2.51397 15.5455 2.44085 15.626 2.34876 15.6787L0.905632 16.4813C0.796395 16.5371 0.711331 16.6309 0.666442 16.7451C0.621552 16.8593 0.61993 16.986 0.661882 17.1012L0.911882 17.7887C0.953703 17.9044 1.03695 18.0003 1.14549 18.0581C1.25403 18.1158 1.38014 18.1312 1.49938 18.1012L3.11751 17.7887C3.22271 17.7684 3.33167 17.7824 3.42833 17.8286C3.52499 17.8749 3.60423 17.9509 3.65438 18.0456C3.74813 18.2206 3.84813 18.3958 3.95438 18.5713C4.01048 18.6625 4.03644 18.769 4.02859 18.8758C4.02073 18.9826 3.97947 19.0842 3.91063 19.1663L2.83001 20.4137C2.7462 20.5029 2.698 20.6197 2.69454 20.7421C2.69109 20.8644 2.73261 20.9837 2.81126 21.0775L3.27938 21.64C3.35739 21.7346 3.46788 21.7967 3.58925 21.8142C3.71061 21.8316 3.83413 21.8032 3.93563 21.7344L5.35376 20.8825C5.44492 20.8285 5.55088 20.8048 5.65637 20.8149C5.76185 20.825 5.86139 20.8684 5.94063 20.9387C6.09063 21.0706 6.24688 21.2019 6.40313 21.3275C6.48624 21.3935 6.54618 21.4843 6.57427 21.5867C6.60236 21.689 6.59715 21.7977 6.55938 21.8969L5.97188 23.4438C5.92269 23.5561 5.91652 23.6827 5.95455 23.7993C5.99258 23.9159 6.07215 24.0145 6.17813 24.0763L6.81563 24.4456C6.92203 24.506 7.04688 24.5253 7.16655 24.4999C7.28623 24.4744 7.39241 24.406 7.46501 24.3075L8.51438 23.0175C8.64563 22.855 8.85813 22.7862 9.02688 22.855C9.23938 22.9425 9.38313 22.9925 9.64563 23.0806C9.74665 23.114 9.83439 23.1787 9.8961 23.2654C9.95781 23.352 9.99027 23.4561 9.98876 23.5625L9.96376 25.2156C9.95639 25.3386 9.99428 25.46 10.0703 25.5569C10.1463 25.6539 10.2551 25.7197 10.3763 25.7419L11.1006 25.8669C11.2219 25.8879 11.3466 25.8638 11.4514 25.7992C11.5561 25.7347 11.6337 25.634 11.6694 25.5163L12.2069 23.9538C12.2414 23.8528 12.3072 23.7656 12.3948 23.7048C12.4824 23.6439 12.5872 23.6127 12.6938 23.6156H13.3063C13.4127 23.6134 13.5171 23.6449 13.6046 23.7056C13.6921 23.7664 13.7581 23.8532 13.7931 23.9538L14.3306 25.5163C14.3663 25.634 14.4439 25.7347 14.5486 25.7992C14.6534 25.8638 14.7781 25.8879 14.8994 25.8669L15.6238 25.7419C15.7449 25.7197 15.8538 25.6539 15.9297 25.5569C16.0057 25.46 16.0436 25.3386 16.0363 25.2156L16.0113 23.5625C16.0097 23.4561 16.0422 23.352 16.1039 23.2654C16.1656 23.1787 16.2534 23.114 16.3544 23.0806C16.6169 22.9925 16.7919 22.9237 16.9544 22.8612C17.1169 22.7987 17.3169 22.7987 17.4731 22.9925L18.5356 24.3013C18.6086 24.4001 18.7154 24.4686 18.8356 24.4937C18.9558 24.5188 19.0811 24.4988 19.1875 24.4375L19.825 24.0681C19.9317 24.0071 20.0119 23.9085 20.05 23.7916C20.0881 23.6747 20.0814 23.5479 20.0313 23.4356L19.4438 21.8888C19.4066 21.7894 19.4017 21.6808 19.4298 21.5785C19.4578 21.4762 19.5174 21.3853 19.6 21.3188C19.7563 21.1938 19.9125 21.0625 20.0625 20.9306C20.1417 20.8603 20.2413 20.8169 20.3468 20.8068C20.4523 20.7967 20.5582 20.8204 20.6494 20.8744L22.0625 21.7288C22.1645 21.7959 22.2876 21.8234 22.4085 21.806C22.5294 21.7886 22.6398 21.7275 22.7188 21.6344L23.1869 21.0719C23.2655 20.9781 23.3071 20.8588 23.3036 20.7364C23.3001 20.6141 23.2519 20.4973 23.1681 20.4081L22.0875 19.1619C22.0172 19.0806 21.975 18.9788 21.9672 18.8716C21.9593 18.7644 21.9861 18.6576 22.0438 18.5669C22.15 18.3981 22.25 18.2229 22.3438 18.0413C22.3947 17.9473 22.4741 17.8719 22.5705 17.8257C22.6669 17.7796 22.7755 17.7651 22.8806 17.7844L24.4988 18.0969C24.618 18.1259 24.7437 18.1102 24.852 18.0526C24.9604 17.9949 25.0437 17.8995 25.0863 17.7844L25.3363 17.0969C25.3782 16.9816 25.3766 16.8549 25.3317 16.7408C25.2868 16.6266 25.2017 16.5327 25.0925 16.4769L23.6494 15.6756C23.5563 15.6239 23.4824 15.5435 23.4385 15.4465C23.3946 15.3495 23.3831 15.2409 23.4056 15.1369C23.4431 14.9369 23.4806 14.7425 23.5119 14.5425C23.5269 14.437 23.5749 14.339 23.649 14.2624C23.723 14.1859 23.8195 14.1347 23.9244 14.1162L25.5544 13.8538C25.6757 13.8388 25.7875 13.7804 25.869 13.6894C25.9506 13.5984 25.9965 13.481 25.9981 13.3587V12.625C25.9913 12.5039 25.942 12.3891 25.8589 12.3007C25.7758 12.2123 25.6642 12.1561 25.5438 12.1419ZM13 4C14.9962 3.99915 16.936 4.66283 18.5133 5.88639C20.0906 7.10994 21.2157 8.82374 21.7113 10.7575C21.7481 10.905 21.7509 11.0589 21.7193 11.2076C21.6878 11.3563 21.6227 11.4958 21.5292 11.6156C21.4356 11.7354 21.3159 11.8323 21.1793 11.8989C21.0427 11.9655 20.8926 12.0001 20.7406 12H14.1631C13.9865 12 13.813 11.9532 13.6603 11.8644C13.5075 11.7756 13.3811 11.6479 13.2938 11.4944L10.0375 5.7625C9.96168 5.62924 9.91752 5.48033 9.90842 5.32728C9.89932 5.17424 9.92554 5.02114 9.98504 4.87984C10.0445 4.73854 10.1357 4.61282 10.2516 4.51238C10.3674 4.41195 10.5048 4.3395 10.6531 4.30062C11.4192 4.09964 12.208 3.99859 13 4ZM4.00001 13C3.99888 11.7949 4.23978 10.6019 4.70841 9.49168C5.17704 8.38146 5.86386 7.37666 6.72813 6.53687C6.83727 6.42883 6.96982 6.34738 7.11551 6.29883C7.2612 6.25027 7.41611 6.23593 7.56824 6.2569C7.72037 6.27787 7.86563 6.3336 7.99274 6.41977C8.11986 6.50593 8.22543 6.62021 8.30126 6.75375L11.5663 12.5C11.6525 12.651 11.6979 12.822 11.6979 12.9959C11.6979 13.1699 11.6525 13.3408 11.5663 13.4919L8.27438 19.2231C8.19796 19.3563 8.09191 19.4701 7.96444 19.5556C7.83697 19.6412 7.69152 19.6963 7.53934 19.7166C7.38716 19.7369 7.23235 19.7219 7.08691 19.6727C6.94147 19.6236 6.80929 19.5416 6.70063 19.4331C5.84479 18.5947 5.16504 17.5937 4.70128 16.489C4.23752 15.3843 3.9991 14.1981 4.00001 13ZM13 22C12.1943 22.0021 11.3917 21.898 10.6131 21.6906C10.4649 21.6512 10.3276 21.5782 10.2121 21.4773C10.0966 21.3764 10.0058 21.2502 9.94682 21.1086C9.88785 20.9669 9.86225 20.8136 9.87202 20.6605C9.88178 20.5074 9.92665 20.3586 10.0031 20.2256L13.2894 14.5037C13.3773 14.3515 13.5037 14.2251 13.656 14.1374C13.8083 14.0496 13.9811 14.0035 14.1569 14.0037H20.7438C20.8957 14.0038 21.0457 14.0384 21.1822 14.1051C21.3188 14.1717 21.4383 14.2686 21.5318 14.3884C21.6254 14.5082 21.6903 14.6477 21.7219 14.7963C21.7534 14.945 21.7506 15.0988 21.7138 15.2463C21.2172 17.1796 20.0914 18.8928 18.5137 20.1156C16.9359 21.3384 14.9961 22.0014 13 22Z" fill="#F1E9FA"/>
</svg>
