<svg width="26" height="26" viewBox="0 0 26 26" fill="none" xmlns="http://www.w3.org/2000/svg">
<path d="M13.7375 14.25L10.8625 17.1125C10.7453 17.2287 10.6523 17.367 10.5889 17.5193C10.5254 17.6716 10.4928 17.835 10.4928 18C10.4928 18.165 10.5254 18.3284 10.5889 18.4807C10.6523 18.633 10.7453 18.7713 10.8625 18.8875C10.9787 19.0047 11.117 19.0977 11.2693 19.1611C11.4216 19.2246 11.585 19.2572 11.75 19.2572C11.915 19.2572 12.0784 19.2246 12.2307 19.1611C12.383 19.0977 12.5213 19.0047 12.6375 18.8875L17.6375 13.8875C17.7513 13.7686 17.8405 13.6284 17.9 13.475C18.025 13.1707 18.025 12.8293 17.9 12.525C17.8405 12.3716 17.7513 12.2314 17.6375 12.1125L12.6375 7.1125C12.521 6.99595 12.3826 6.9035 12.2303 6.84042C12.078 6.77735 11.9148 6.74488 11.75 6.74488C11.5852 6.74488 11.422 6.77735 11.2697 6.84042C11.1174 6.9035 10.979 6.99595 10.8625 7.1125C10.746 7.22905 10.6535 7.36741 10.5904 7.51969C10.5273 7.67196 10.4949 7.83517 10.4949 8C10.4949 8.16482 10.5273 8.32803 10.5904 8.48031C10.6535 8.63259 10.746 8.77095 10.8625 8.8875L13.7375 11.75H1.75C1.41848 11.75 1.10054 11.8817 0.866116 12.1161C0.631696 12.3505 0.5 12.6685 0.5 13C0.5 13.3315 0.631696 13.6495 0.866116 13.8839C1.10054 14.1183 1.41848 14.25 1.75 14.25H13.7375ZM13 0.499999C10.6639 0.489569 8.37155 1.13401 6.38308 2.36024C4.39461 3.58646 2.78957 5.34539 1.75 7.4375C1.60082 7.73587 1.57627 8.08128 1.68176 8.39775C1.78725 8.71421 2.01413 8.97581 2.3125 9.125C2.61087 9.27418 2.95628 9.29873 3.27275 9.19324C3.58921 9.08775 3.85082 8.86087 4 8.5625C4.79024 6.96665 5.99229 5.61077 7.48194 4.63498C8.97158 3.65919 10.6948 3.0989 12.4734 3.01199C14.2521 2.92508 16.0217 3.31472 17.5994 4.14064C19.1771 4.96655 20.5056 6.19879 21.4476 7.70999C22.3897 9.2212 22.9111 10.9566 22.958 12.7367C23.0049 14.5169 22.5756 16.2773 21.7144 17.836C20.8532 19.3947 19.5914 20.6952 18.0594 21.603C16.5274 22.5109 14.7808 22.9931 13 23C11.1361 23.0081 9.30769 22.4905 7.72461 21.5066C6.14154 20.5227 4.86794 19.1124 4.05 17.4375C3.90082 17.1391 3.63922 16.9122 3.32275 16.8068C3.00628 16.7013 2.66087 16.7258 2.3625 16.875C2.06413 17.0242 1.83725 17.2858 1.73176 17.6023C1.62627 17.9187 1.65082 18.2641 1.8 18.5625C2.79103 20.5569 4.2969 22.2503 6.16184 23.4676C8.02678 24.6848 10.1831 25.3817 12.4076 25.4862C14.6322 25.5907 16.8444 25.099 18.8152 24.0619C20.786 23.0248 22.444 21.48 23.6176 19.5873C24.7912 17.6946 25.4378 15.5227 25.4906 13.2963C25.5434 11.0698 25.0004 8.86974 23.9178 6.92354C22.8352 4.97734 21.2523 3.35571 19.3328 2.22638C17.4134 1.09705 15.227 0.501044 13 0.499999Z" fill="#F1E9FA"/>
</svg>
