<svg width="35" height="30" viewBox="0 0 35 30" fill="none" xmlns="http://www.w3.org/2000/svg">
<path d="M34.9781 4.35383C33.6962 4.90684 32.3011 5.30484 30.8641 5.45985C32.356 4.57351 33.4732 3.17324 34.0062 1.52176C32.6062 2.35458 31.0725 2.93857 29.4732 3.24782C28.8047 2.53321 27.9963 1.96392 27.0982 1.57542C26.2001 1.18692 25.2316 0.987541 24.2531 0.989702C20.2941 0.989702 17.1101 4.19882 17.1101 8.13691C17.1101 8.68992 17.1771 9.24292 17.2861 9.77499C11.358 9.46497 6.0709 6.6329 2.55595 2.29681C1.91549 3.39074 1.57986 4.63631 1.584 5.90393C1.584 8.38409 2.84502 10.571 4.76798 11.8571C3.63475 11.8125 2.52806 11.501 1.53791 10.948V11.036C1.53791 14.5091 3.99293 17.3872 7.26489 18.0492C6.65055 18.2087 6.01856 18.2904 5.38383 18.2921C4.9188 18.2921 4.47891 18.2461 4.03483 18.1832C4.93975 21.0153 7.57491 23.0723 10.7128 23.1393C8.25779 25.0623 5.18274 26.1935 1.84374 26.1935C1.24465 26.1935 0.691642 26.1725 0.117687 26.1055C3.28491 28.1374 7.04285 29.3104 11.0899 29.3104C24.228 29.3104 31.4171 18.4262 31.4171 8.97899C31.4171 8.66897 31.4171 8.35895 31.3961 8.04893C32.787 7.03089 34.0062 5.76987 34.9781 4.35383Z" fill="#F1E9FA"/>
</svg>
