<svg width="24" height="24" viewBox="0 0 24 24" fill="none" xmlns="http://www.w3.org/2000/svg">
<path d="M22.1514 19.3711C21.5987 18.062 20.7967 16.873 19.7901 15.8701C18.7864 14.8644 17.5976 14.0625 16.2891 13.5088C16.2774 13.5029 16.2656 13.5 16.2539 13.4941C18.0791 12.1758 19.2656 10.0283 19.2656 7.60547C19.2656 3.5918 16.0137 0.339844 12 0.339844C7.98634 0.339844 4.73439 3.5918 4.73439 7.60547C4.73439 10.0283 5.92091 12.1758 7.74611 13.4971C7.73439 13.5029 7.72267 13.5059 7.71095 13.5117C6.39845 14.0654 5.22072 14.8594 4.20997 15.873C3.20424 16.8767 2.40237 18.0655 1.84865 19.374C1.30467 20.655 1.01129 22.0285 0.984387 23.4199C0.983605 23.4512 0.98909 23.4823 1.00052 23.5114C1.01195 23.5405 1.02909 23.5671 1.05093 23.5895C1.07277 23.6118 1.09887 23.6296 1.1277 23.6418C1.15652 23.6539 1.18748 23.6602 1.21876 23.6602H2.97658C3.10548 23.6602 3.20802 23.5576 3.21095 23.4316C3.26954 21.1699 4.17775 19.0518 5.78322 17.4463C7.44435 15.7852 9.6504 14.8711 12 14.8711C14.3496 14.8711 16.5557 15.7852 18.2168 17.4463C19.8223 19.0518 20.7305 21.1699 20.7891 23.4316C20.792 23.5605 20.8945 23.6602 21.0235 23.6602H22.7813C22.8125 23.6602 22.8435 23.6539 22.8723 23.6418C22.9012 23.6296 22.9273 23.6118 22.9491 23.5895C22.9709 23.5671 22.9881 23.5405 22.9995 23.5114C23.0109 23.4823 23.0164 23.4512 23.0156 23.4199C22.9863 22.0195 22.6963 20.6572 22.1514 19.3711ZM12 12.6445C10.6553 12.6445 9.38966 12.1201 8.43751 11.168C7.48536 10.2158 6.96095 8.9502 6.96095 7.60547C6.96095 6.26074 7.48536 4.99512 8.43751 4.04297C9.38966 3.09082 10.6553 2.56641 12 2.56641C13.3447 2.56641 14.6104 3.09082 15.5625 4.04297C16.5147 4.99512 17.0391 6.26074 17.0391 7.60547C17.0391 8.9502 16.5147 10.2158 15.5625 11.168C14.6104 12.1201 13.3447 12.6445 12 12.6445Z" fill="#F1E9FA"/>
</svg>
