<svg width="21" height="17" viewBox="0 0 21 17" fill="none" xmlns="http://www.w3.org/2000/svg">
<path d="M20.2656 0.6875H6.00781C5.90039 0.6875 5.8125 0.775391 5.8125 0.882812V2.25C5.8125 2.35742 5.90039 2.44531 6.00781 2.44531H20.2656C20.373 2.44531 20.4609 2.35742 20.4609 2.25V0.882812C20.4609 0.775391 20.373 0.6875 20.2656 0.6875ZM20.2656 7.62109H6.00781C5.90039 7.62109 5.8125 7.70898 5.8125 7.81641V9.18359C5.8125 9.29102 5.90039 9.37891 6.00781 9.37891H20.2656C20.373 9.37891 20.4609 9.29102 20.4609 9.18359V7.81641C20.4609 7.70898 20.373 7.62109 20.2656 7.62109ZM20.2656 14.5547H6.00781C5.90039 14.5547 5.8125 14.6426 5.8125 14.75V16.1172C5.8125 16.2246 5.90039 16.3125 6.00781 16.3125H20.2656C20.373 16.3125 20.4609 16.2246 20.4609 16.1172V14.75C20.4609 14.6426 20.373 14.5547 20.2656 14.5547ZM0.539062 1.56641C0.539062 1.74595 0.574426 1.92373 0.643134 2.08961C0.711841 2.25548 0.812547 2.4062 0.939503 2.53315C1.06646 2.66011 1.21718 2.76081 1.38305 2.82952C1.54892 2.89823 1.72671 2.93359 1.90625 2.93359C2.08579 2.93359 2.26358 2.89823 2.42945 2.82952C2.59532 2.76081 2.74604 2.66011 2.873 2.53315C2.99995 2.4062 3.10066 2.25548 3.16937 2.08961C3.23807 1.92373 3.27344 1.74595 3.27344 1.56641C3.27344 1.38686 3.23807 1.20908 3.16937 1.04321C3.10066 0.877332 2.99995 0.726614 2.873 0.599659C2.74604 0.472704 2.59532 0.371997 2.42945 0.30329C2.26358 0.234582 2.08579 0.199219 1.90625 0.199219C1.72671 0.199219 1.54892 0.234582 1.38305 0.30329C1.21718 0.371997 1.06646 0.472704 0.939503 0.599659C0.812547 0.726614 0.711841 0.877332 0.643134 1.04321C0.574426 1.20908 0.539062 1.38686 0.539062 1.56641ZM0.539062 8.5C0.539062 8.67954 0.574426 8.85733 0.643134 9.0232C0.711841 9.18908 0.812547 9.33979 0.939503 9.46675C1.06646 9.5937 1.21718 9.69441 1.38305 9.76312C1.54892 9.83182 1.72671 9.86719 1.90625 9.86719C2.08579 9.86719 2.26358 9.83182 2.42945 9.76312C2.59532 9.69441 2.74604 9.5937 2.873 9.46675C2.99995 9.33979 3.10066 9.18908 3.16937 9.0232C3.23807 8.85733 3.27344 8.67954 3.27344 8.5C3.27344 8.32046 3.23807 8.14267 3.16937 7.9768C3.10066 7.81093 2.99995 7.66021 2.873 7.53325C2.74604 7.4063 2.59532 7.30559 2.42945 7.23688C2.26358 7.16818 2.08579 7.13281 1.90625 7.13281C1.72671 7.13281 1.54892 7.16818 1.38305 7.23688C1.21718 7.30559 1.06646 7.4063 0.939503 7.53325C0.812547 7.66021 0.711841 7.81093 0.643134 7.9768C0.574426 8.14267 0.539062 8.32046 0.539062 8.5ZM0.539062 15.4336C0.539062 15.6131 0.574426 15.7909 0.643134 15.9568C0.711841 16.1227 0.812547 16.2734 0.939503 16.4003C1.06646 16.5273 1.21718 16.628 1.38305 16.6967C1.54892 16.7654 1.72671 16.8008 1.90625 16.8008C2.08579 16.8008 2.26358 16.7654 2.42945 16.6967C2.59532 16.628 2.74604 16.5273 2.873 16.4003C2.99995 16.2734 3.10066 16.1227 3.16937 15.9568C3.23807 15.7909 3.27344 15.6131 3.27344 15.4336C3.27344 15.2541 3.23807 15.0763 3.16937 14.9104C3.10066 14.7445 2.99995 14.5938 2.873 14.4668C2.74604 14.3399 2.59532 14.2392 2.42945 14.1705C2.26358 14.1018 2.08579 14.0664 1.90625 14.0664C1.72671 14.0664 1.54892 14.1018 1.38305 14.1705C1.21718 14.2392 1.06646 14.3399 0.939503 14.4668C0.812547 14.5938 0.711841 14.7445 0.643134 14.9104C0.574426 15.0763 0.539062 15.2541 0.539062 15.4336Z" fill="#676968"/>
</svg>
